<mxfile host="app.diagrams.net" agent="Mozilla/5.0 (Windows NT 10.0; Win64; x64) AppleWebKit/537.36 (KHTML, like Gecko) Chrome/130.0.0.0 Safari/537.36" version="24.8.3">
  <diagram name="Page-1" id="ZrEEJuOPULFKZgPX1UGS">
    <mxGraphModel dx="2100" dy="1144" grid="1" gridSize="10" guides="1" tooltips="1" connect="1" arrows="1" fold="1" page="1" pageScale="1" pageWidth="850" pageHeight="1100" math="0" shadow="0">
      <root>
        <mxCell id="0" />
        <mxCell id="1" parent="0" />
        <mxCell id="6uhDlHwIgaBfjL2I-Rh7-1" value="Guru" style="rounded=0;whiteSpace=wrap;html=1;glass=0;fillColor=#A9C4EB;" vertex="1" parent="1">
          <mxGeometry x="180" y="160" width="80" height="40" as="geometry" />
        </mxCell>
        <mxCell id="6uhDlHwIgaBfjL2I-Rh7-6" style="edgeStyle=orthogonalEdgeStyle;rounded=0;orthogonalLoop=1;jettySize=auto;html=1;entryX=0;entryY=0.5;entryDx=0;entryDy=0;" edge="1" parent="1" source="6uhDlHwIgaBfjL2I-Rh7-2" target="6uhDlHwIgaBfjL2I-Rh7-4">
          <mxGeometry relative="1" as="geometry" />
        </mxCell>
        <mxCell id="6uhDlHwIgaBfjL2I-Rh7-7" style="edgeStyle=orthogonalEdgeStyle;rounded=0;orthogonalLoop=1;jettySize=auto;html=1;exitX=0;exitY=0.5;exitDx=0;exitDy=0;entryX=1;entryY=0.5;entryDx=0;entryDy=0;" edge="1" parent="1" source="6uhDlHwIgaBfjL2I-Rh7-2" target="6uhDlHwIgaBfjL2I-Rh7-1">
          <mxGeometry relative="1" as="geometry" />
        </mxCell>
        <mxCell id="6uhDlHwIgaBfjL2I-Rh7-19" style="edgeStyle=none;curved=1;rounded=0;orthogonalLoop=1;jettySize=auto;html=1;entryX=0.5;entryY=0;entryDx=0;entryDy=0;fontSize=12;startSize=8;endSize=8;" edge="1" parent="1" source="6uhDlHwIgaBfjL2I-Rh7-2" target="6uhDlHwIgaBfjL2I-Rh7-16">
          <mxGeometry relative="1" as="geometry" />
        </mxCell>
        <mxCell id="6uhDlHwIgaBfjL2I-Rh7-2" value="Proses Pembelajaran Informatika Kelas X SMK Negeri 3 Singaraja" style="rounded=0;whiteSpace=wrap;html=1;fillColor=#9AC7BF;" vertex="1" parent="1">
          <mxGeometry x="290" y="152.5" width="150" height="55" as="geometry" />
        </mxCell>
        <mxCell id="6uhDlHwIgaBfjL2I-Rh7-4" value="Peserta Didik" style="rounded=0;whiteSpace=wrap;html=1;gradientColor=none;gradientDirection=east;fillStyle=auto;fillColor=#A9C4EB;" vertex="1" parent="1">
          <mxGeometry x="470" y="160" width="80" height="40" as="geometry" />
        </mxCell>
        <mxCell id="6uhDlHwIgaBfjL2I-Rh7-14" value="&lt;span style=&quot;color: rgb(0, 0, 0); font-family: Helvetica; font-size: 12px; font-style: normal; font-variant-ligatures: normal; font-variant-caps: normal; font-weight: 400; letter-spacing: normal; orphans: 2; text-align: center; text-indent: 0px; text-transform: none; widows: 2; word-spacing: 0px; -webkit-text-stroke-width: 0px; white-space: normal; background-color: rgb(251, 251, 251); text-decoration-thickness: initial; text-decoration-style: initial; text-decoration-color: initial; display: inline !important; float: none;&quot;&gt;Rendahnya pemahaman peserta didik pada konsep algoritma yang bersifat abstrak, terutama jika hanya disampaikan secara verbal atau melalui teks&lt;/span&gt;" style="rounded=0;whiteSpace=wrap;html=1;" vertex="1" parent="1">
          <mxGeometry x="90" y="260" width="160" height="100" as="geometry" />
        </mxCell>
        <mxCell id="6uhDlHwIgaBfjL2I-Rh7-41" style="edgeStyle=none;curved=1;rounded=0;orthogonalLoop=1;jettySize=auto;html=1;fontSize=12;startSize=8;endSize=8;" edge="1" parent="1" source="6uhDlHwIgaBfjL2I-Rh7-16" target="6uhDlHwIgaBfjL2I-Rh7-28">
          <mxGeometry relative="1" as="geometry" />
        </mxCell>
        <mxCell id="6uhDlHwIgaBfjL2I-Rh7-16" value="&lt;div&gt;Kuranganya penerapan langkah&amp;nbsp;&lt;span style=&quot;background-color: initial;&quot;&gt;pembelajaran yang terstruktur dan berbasis prinsip&amp;nbsp;&lt;/span&gt;&lt;span style=&quot;background-color: initial;&quot;&gt;instruksional yang optimal oleh guru&lt;/span&gt;&lt;/div&gt;" style="rounded=0;whiteSpace=wrap;html=1;" vertex="1" parent="1">
          <mxGeometry x="287.5" y="270" width="155" height="80" as="geometry" />
        </mxCell>
        <mxCell id="6uhDlHwIgaBfjL2I-Rh7-17" value="Media pembelajaran yang digunakan masih cenderung terbatas dan kurang interaktif" style="rounded=0;whiteSpace=wrap;html=1;" vertex="1" parent="1">
          <mxGeometry x="480" y="260" width="160" height="100" as="geometry" />
        </mxCell>
        <mxCell id="6uhDlHwIgaBfjL2I-Rh7-18" style="edgeStyle=none;curved=1;rounded=0;orthogonalLoop=1;jettySize=auto;html=1;exitX=0.25;exitY=1;exitDx=0;exitDy=0;fontSize=12;startSize=8;endSize=8;" edge="1" parent="1" source="6uhDlHwIgaBfjL2I-Rh7-1" target="6uhDlHwIgaBfjL2I-Rh7-1">
          <mxGeometry relative="1" as="geometry" />
        </mxCell>
        <mxCell id="6uhDlHwIgaBfjL2I-Rh7-25" value="" style="endArrow=none;html=1;rounded=0;fontSize=12;startSize=8;endSize=8;curved=1;" edge="1" parent="1">
          <mxGeometry width="50" height="50" relative="1" as="geometry">
            <mxPoint x="170" y="230" as="sourcePoint" />
            <mxPoint x="560" y="230" as="targetPoint" />
          </mxGeometry>
        </mxCell>
        <mxCell id="6uhDlHwIgaBfjL2I-Rh7-26" value="" style="endArrow=classic;html=1;rounded=0;fontSize=12;startSize=8;endSize=8;curved=1;entryX=0.5;entryY=0;entryDx=0;entryDy=0;" edge="1" parent="1" target="6uhDlHwIgaBfjL2I-Rh7-14">
          <mxGeometry width="50" height="50" relative="1" as="geometry">
            <mxPoint x="170" y="230" as="sourcePoint" />
            <mxPoint x="300" y="270" as="targetPoint" />
          </mxGeometry>
        </mxCell>
        <mxCell id="6uhDlHwIgaBfjL2I-Rh7-27" value="" style="endArrow=classic;html=1;rounded=0;fontSize=12;startSize=8;endSize=8;curved=1;entryX=0.5;entryY=0;entryDx=0;entryDy=0;" edge="1" parent="1" target="6uhDlHwIgaBfjL2I-Rh7-17">
          <mxGeometry width="50" height="50" relative="1" as="geometry">
            <mxPoint x="560" y="230" as="sourcePoint" />
            <mxPoint x="610" y="180" as="targetPoint" />
          </mxGeometry>
        </mxCell>
        <mxCell id="6uhDlHwIgaBfjL2I-Rh7-43" style="edgeStyle=none;curved=1;rounded=0;orthogonalLoop=1;jettySize=auto;html=1;entryX=0.5;entryY=0;entryDx=0;entryDy=0;fontSize=12;startSize=8;endSize=8;" edge="1" parent="1" source="6uhDlHwIgaBfjL2I-Rh7-28" target="6uhDlHwIgaBfjL2I-Rh7-30">
          <mxGeometry relative="1" as="geometry" />
        </mxCell>
        <mxCell id="6uhDlHwIgaBfjL2I-Rh7-28" value="Perancangan Media Pembelajaran Interaktif" style="rounded=0;whiteSpace=wrap;html=1;fillColor=#9AC7BF;" vertex="1" parent="1">
          <mxGeometry x="280" y="390" width="170" height="60" as="geometry" />
        </mxCell>
        <mxCell id="6uhDlHwIgaBfjL2I-Rh7-29" value="Hardware Pendukung satu set laptop&lt;div&gt;core i5&amp;nbsp;&lt;/div&gt;" style="rounded=0;whiteSpace=wrap;html=1;" vertex="1" parent="1">
          <mxGeometry x="140" y="490" width="120" height="40" as="geometry" />
        </mxCell>
        <mxCell id="6uhDlHwIgaBfjL2I-Rh7-48" style="edgeStyle=none;curved=1;rounded=0;orthogonalLoop=1;jettySize=auto;html=1;entryX=0.5;entryY=0;entryDx=0;entryDy=0;fontSize=12;startSize=8;endSize=8;" edge="1" parent="1" source="6uhDlHwIgaBfjL2I-Rh7-30" target="6uhDlHwIgaBfjL2I-Rh7-33">
          <mxGeometry relative="1" as="geometry" />
        </mxCell>
        <mxCell id="6uhDlHwIgaBfjL2I-Rh7-30" value="Desain Pengem&lt;span style=&quot;color: rgba(0, 0, 0, 0); font-family: monospace; font-size: 0px; text-align: start; text-wrap-mode: nowrap;&quot;&gt;%3CmxGraphModel%3E%3Croot%3E%3CmxCell%20id%3D%220%22%2F%3E%3CmxCell%20id%3D%221%22%20parent%3D%220%22%2F%3E%3CmxCell%20id%3D%222%22%20value%3D%22Hardware%20Pendukung%20satu%20set%20laptop%20core%20i5%26amp%3Bnbsp%3B%22%20style%3D%22rounded%3D0%3BwhiteSpace%3Dwrap%3Bhtml%3D1%3B%22%20vertex%3D%221%22%20parent%3D%221%22%3E%3CmxGeometry%20x%3D%22110%22%20y%3D%22490%22%20width%3D%22110%22%20height%3D%2240%22%20as%3D%22geometry%22%2F%3E%3C%2FmxCell%3E%3C%2Froot%3E%3C%2FmxGraphModel%3E&lt;/span&gt;bangan" style="rounded=0;whiteSpace=wrap;html=1;" vertex="1" parent="1">
          <mxGeometry x="305" y="490" width="120" height="40" as="geometry" />
        </mxCell>
        <mxCell id="6uhDlHwIgaBfjL2I-Rh7-31" value="Software Pendukung&amp;nbsp;&lt;div&gt;Adobe Animate&lt;/div&gt;" style="rounded=0;whiteSpace=wrap;html=1;" vertex="1" parent="1">
          <mxGeometry x="470" y="490" width="120" height="40" as="geometry" />
        </mxCell>
        <mxCell id="6uhDlHwIgaBfjL2I-Rh7-56" style="edgeStyle=none;curved=1;rounded=0;orthogonalLoop=1;jettySize=auto;html=1;entryX=0.5;entryY=0;entryDx=0;entryDy=0;fontSize=12;startSize=8;endSize=8;" edge="1" parent="1" source="6uhDlHwIgaBfjL2I-Rh7-33" target="6uhDlHwIgaBfjL2I-Rh7-36">
          <mxGeometry relative="1" as="geometry">
            <Array as="points" />
          </mxGeometry>
        </mxCell>
        <mxCell id="6uhDlHwIgaBfjL2I-Rh7-58" value="Output" style="edgeLabel;html=1;align=center;verticalAlign=middle;resizable=0;points=[];fontSize=12;" vertex="1" connectable="0" parent="6uhDlHwIgaBfjL2I-Rh7-56">
          <mxGeometry x="0.0107" y="1" relative="1" as="geometry">
            <mxPoint x="-1" y="-6" as="offset" />
          </mxGeometry>
        </mxCell>
        <mxCell id="6uhDlHwIgaBfjL2I-Rh7-33" value="Pengembangan Media Pembelajaran Interaktif Berbasis Prinsip&amp;nbsp;GagnÃ© pada Mata Pelajaran Informatika" style="rounded=0;whiteSpace=wrap;html=1;fillColor=#9AC7BF;" vertex="1" parent="1">
          <mxGeometry x="280" y="550" width="170" height="70" as="geometry" />
        </mxCell>
        <mxCell id="6uhDlHwIgaBfjL2I-Rh7-51" style="edgeStyle=none;curved=1;rounded=0;orthogonalLoop=1;jettySize=auto;html=1;entryX=0;entryY=0.5;entryDx=0;entryDy=0;fontSize=12;startSize=8;endSize=8;" edge="1" parent="1" source="6uhDlHwIgaBfjL2I-Rh7-36" target="6uhDlHwIgaBfjL2I-Rh7-37">
          <mxGeometry relative="1" as="geometry" />
        </mxCell>
        <mxCell id="6uhDlHwIgaBfjL2I-Rh7-52" style="edgeStyle=none;curved=1;rounded=0;orthogonalLoop=1;jettySize=auto;html=1;fontSize=12;startSize=8;endSize=8;" edge="1" parent="1" source="6uhDlHwIgaBfjL2I-Rh7-36" target="6uhDlHwIgaBfjL2I-Rh7-40">
          <mxGeometry relative="1" as="geometry" />
        </mxCell>
        <mxCell id="6uhDlHwIgaBfjL2I-Rh7-36" value="Menghasilkan media pembelajaran interaktif berbasis prinsip prinsip GagnÃ© pada mata pelajaran informatika&lt;span style=&quot;color: rgba(0, 0, 0, 0); font-family: monospace; font-size: 0px; text-align: start; text-wrap-mode: nowrap;&quot;&gt;%3CmxGraphModel%3E%3Croot%3E%3CmxCell%20id%3D%220%22%2F%3E%3CmxCell%20id%3D%221%22%20parent%3D%220%22%2F%3E%3CmxCell%20id%3D%222%22%20value%3D%22Software%20Pendukung%26amp%3Bnbsp%3B%26lt%3Bdiv%26gt%3BAdobe%20Animate%26lt%3B%2Fdiv%26gt%3B%22%20style%3D%22rounded%3D0%3BwhiteSpace%3Dwrap%3Bhtml%3D1%3B%22%20vertex%3D%221%22%20parent%3D%221%22%3E%3CmxGeometry%20x%3D%22470%22%20y%3D%22480%22%20width%3D%22120%22%20height%3D%2240%22%20as%3D%22geometry%22%2F%3E%3C%2FmxCell%3E%3C%2Froot%3E%3C%2FmxGraphModel%3E&lt;/span&gt;" style="rounded=0;whiteSpace=wrap;html=1;" vertex="1" parent="1">
          <mxGeometry x="300" y="710" width="130" height="90" as="geometry" />
        </mxCell>
        <mxCell id="6uhDlHwIgaBfjL2I-Rh7-37" value="Mengetahui respon peserta didik dan guru terhadap pengembangan media pembelajaran interaktif serta efektivitas produk pengembangan." style="rounded=0;whiteSpace=wrap;html=1;" vertex="1" parent="1">
          <mxGeometry x="470" y="700" width="150" height="110" as="geometry" />
        </mxCell>
        <mxCell id="6uhDlHwIgaBfjL2I-Rh7-40" value="Mendeskripsikan hasil validitas produk pengembangan media pembelajaran interaktif berbasis prinsip GagnÃ© pada mata pelajaran informatika&amp;nbsp;" style="rounded=0;whiteSpace=wrap;html=1;" vertex="1" parent="1">
          <mxGeometry x="100" y="700" width="150" height="110" as="geometry" />
        </mxCell>
        <mxCell id="6uhDlHwIgaBfjL2I-Rh7-44" value="" style="endArrow=none;html=1;rounded=0;fontSize=12;startSize=8;endSize=8;curved=1;" edge="1" parent="1">
          <mxGeometry width="50" height="50" relative="1" as="geometry">
            <mxPoint x="200" y="460" as="sourcePoint" />
            <mxPoint x="530" y="460" as="targetPoint" />
          </mxGeometry>
        </mxCell>
        <mxCell id="6uhDlHwIgaBfjL2I-Rh7-45" value="" style="endArrow=classic;html=1;rounded=0;fontSize=12;startSize=8;endSize=8;curved=1;entryX=0.5;entryY=0;entryDx=0;entryDy=0;" edge="1" parent="1" target="6uhDlHwIgaBfjL2I-Rh7-29">
          <mxGeometry width="50" height="50" relative="1" as="geometry">
            <mxPoint x="199.86" y="460" as="sourcePoint" />
            <mxPoint x="200" y="480" as="targetPoint" />
          </mxGeometry>
        </mxCell>
        <mxCell id="6uhDlHwIgaBfjL2I-Rh7-46" value="" style="endArrow=classic;html=1;rounded=0;fontSize=12;startSize=8;endSize=8;curved=1;" edge="1" parent="1">
          <mxGeometry width="50" height="50" relative="1" as="geometry">
            <mxPoint x="529.52" y="460" as="sourcePoint" />
            <mxPoint x="530" y="480" as="targetPoint" />
          </mxGeometry>
        </mxCell>
        <mxCell id="6uhDlHwIgaBfjL2I-Rh7-59" style="edgeStyle=none;curved=1;rounded=0;orthogonalLoop=1;jettySize=auto;html=1;fontSize=12;startSize=8;endSize=8;" edge="1" parent="1" source="6uhDlHwIgaBfjL2I-Rh7-57">
          <mxGeometry relative="1" as="geometry">
            <mxPoint x="390" y="660" as="targetPoint" />
          </mxGeometry>
        </mxCell>
        <mxCell id="6uhDlHwIgaBfjL2I-Rh7-57" value="Implementasi Media Pembelajaran Interaktif" style="rounded=0;whiteSpace=wrap;html=1;" vertex="1" parent="1">
          <mxGeometry x="440" y="640" width="130" height="40" as="geometry" />
        </mxCell>
        <mxCell id="6uhDlHwIgaBfjL2I-Rh7-65" value="" style="endArrow=none;html=1;rounded=0;fontSize=12;startSize=8;endSize=8;curved=1;entryX=0.497;entryY=1.036;entryDx=0;entryDy=0;entryPerimeter=0;" edge="1" parent="1" target="6uhDlHwIgaBfjL2I-Rh7-31">
          <mxGeometry width="50" height="50" relative="1" as="geometry">
            <mxPoint x="530" y="585" as="sourcePoint" />
            <mxPoint x="530" y="525" as="targetPoint" />
          </mxGeometry>
        </mxCell>
        <mxCell id="6uhDlHwIgaBfjL2I-Rh7-66" value="" style="endArrow=classic;html=1;rounded=0;fontSize=12;startSize=8;endSize=8;curved=1;entryX=1;entryY=0.5;entryDx=0;entryDy=0;" edge="1" parent="1" target="6uhDlHwIgaBfjL2I-Rh7-33">
          <mxGeometry width="50" height="50" relative="1" as="geometry">
            <mxPoint x="530" y="585" as="sourcePoint" />
            <mxPoint x="580" y="550" as="targetPoint" />
          </mxGeometry>
        </mxCell>
        <mxCell id="6uhDlHwIgaBfjL2I-Rh7-68" value="" style="endArrow=none;html=1;rounded=0;fontSize=12;startSize=8;endSize=8;curved=1;" edge="1" parent="1">
          <mxGeometry width="50" height="50" relative="1" as="geometry">
            <mxPoint x="200" y="584" as="sourcePoint" />
            <mxPoint x="200" y="530" as="targetPoint" />
          </mxGeometry>
        </mxCell>
        <mxCell id="6uhDlHwIgaBfjL2I-Rh7-69" value="" style="endArrow=classic;html=1;rounded=0;fontSize=12;startSize=8;endSize=8;curved=1;entryX=1;entryY=0.5;entryDx=0;entryDy=0;" edge="1" parent="1">
          <mxGeometry width="50" height="50" relative="1" as="geometry">
            <mxPoint x="200" y="584" as="sourcePoint" />
            <mxPoint x="280" y="584" as="targetPoint" />
          </mxGeometry>
        </mxCell>
      </root>
    </mxGraphModel>
  </diagram>
</mxfile>
